<?xml version="1.0" encoding="UTF-8"?><svg xmlns="http://www.w3.org/2000/svg" width="330" height="280" viewBox="0 0 330 280"><defs><style>.cls-1{fill:#ddc09e;mix-blend-mode:lighten;stroke:#e8e3dd;stroke-miterlimit:10;}.cls-2{isolation:isolate;}</style></defs><g class="cls-2"><g id="Lag_1"><path class="cls-1" d="M320.31,104.47c-1.24-1.77-2.66-3.37-4.25-4.82-1.5-1.36-2.55-3.16-2.95-5.14-1.2-6.03-3.76-11.17-7.8-15.1-.15-.15-.31-.29-.47-.44-1.34-1.22-2.26-2.81-2.78-4.54-1.39-4.65-3.7-8.67-7-11.87-.95-.92-1.96-1.75-3.04-2.49-1.4-.97-2.53-2.27-3.27-3.81-2.06-4.31-4.91-7.87-8.6-10.52-2.23-1.6-4.68-2.8-7.32-3.63-2.43-.76-4.48-2.37-5.79-4.54-2.57-4.27-5.91-7.65-10.03-9.95-2.5-1.4-5.45-2.35-8.43-2.88-2.13-.37-4.11-1.38-5.58-2.97-3.32-3.57-6.98-6.39-11.49-8.34-4.2-1.82-8.65-2.77-13.24-2.93-1.43-.05-2.83-.42-4.1-1.08-4.09-2.12-8.43-3.47-12.98-3.95-4.38-.46-8.74-.09-13.01,1.02-2.07.54-4.25.42-6.24-.38-5.41-2.15-11.02-3.09-16.7-2.65-2.64.2-5.22.7-7.72,1.47-1.79.55-3.67.62-5.49.18-5.64-1.39-11.31-1.55-16.88-.34-5.47,1.19-10.48,3.64-14.97,7.14-2.27,1.77-5.25,2.37-8.07,1.75-4.54-1.01-8.86-.83-12.83.67-4.56,1.72-8.32,5.06-11.26,9.73-1.23,1.95-3.11,3.37-5.29,4.12-1.63.57-3.2,1.29-4.69,2.18-3.92,2.34-7.08,5.67-9.51,9.82-1.39,2.37-3.65,4.16-6.34,4.73-1.98.42-3.78,1.19-5.37,2.3-2.31,1.62-4.06,3.91-5.29,6.77s-3.38,4.81-6.18,5.76c-3.16,1.07-5.95,2.69-8.29,4.89-4.79,4.5-7.26,11-7.65,18.87-.19,3.84-2.67,7.1-6.21,8.59-1.89.8-3.54,1.89-4.92,3.31-3.8,3.91-5.11,9.85-4.25,17.2.41,3.52-1.23,6.89-4.05,9.03-.75.57-1.44,1.21-2.06,1.92-13.63,15.65,10.4,58.89,53.66,96.56,5.68,4.95,11.41,9.55,17.11,13.78,1.79,1.33,3.1,3.2,3.69,5.35l7.4,26.8c1.46,5.27,6.91,8.37,12.18,6.91l25.36-7c2.76-.76,5.74-.31,8.11,1.3,8.44,5.7,17.72,9,27.54,9.37,9.26.34,18.24-1.96,26.64-6.46,2.07-1.11,4.46-1.49,6.76-1.02l33.93,7.01c5.36,1.11,10.6-2.34,11.7-7.69l8.85-42.84-.72-.15c1.11-.75,2.22-1.51,3.32-2.28,55.56-38.9,85.47-92.05,66.81-118.71Z"/><line class="cls-1" x1="154.95" y1="5.66" x2="162.95" y2="276.57"/><line class="cls-1" x1="184.98" y1="7.22" x2="173.94" y2="275.41"/><line class="cls-1" x1="216.04" y1="10.76" x2="183.91" y2="273.26"/><line class="cls-1" x1="245.24" y1="24.33" x2="192.83" y2="268.13"/><line class="cls-1" x1="268.49" y1="40.99" x2="202.73" y2="260.98"/><line class="cls-1" x1="289.75" y1="58.68" x2="214.59" y2="251.81"/><line class="cls-1" x1="305.06" y1="79.45" x2="228.44" y2="241.6"/><line class="cls-1" x1="313.32" y1="97.33" x2="250.2" y2="225.28"/><line class="cls-1" x1="117.09" y1="15.22" x2="150.92" y2="274.75"/><line class="cls-1" x1="86.27" y1="27.68" x2="141.87" y2="270.88"/><line class="cls-1" x1="66.52" y1="44.97" x2="131.78" y2="265.03"/><line class="cls-1" x1="49.72" y1="58.22" x2="114.63" y2="255.28"/><line class="cls-1" x1="29.09" y1="83.53" x2="100.5" y2="246.49"/><line class="cls-1" x1="14.52" y1="112.74" x2="81.34" y2="235.77"/><line class="cls-1" x1="80.97" y1="235.56" x2="131.33" y2="264.77"/><line class="cls-1" x1="251.2" y1="225.26" x2="192.83" y2="268.13"/></g></g></svg>