<svg width="91" height="91" viewBox="0 0 91 91" fill="none" xmlns="http://www.w3.org/2000/svg">
<circle cx="45.5" cy="45.5" r="45.5" fill="#F2A03D"/>
<g clip-path="url(#clip0_67_2998)">
<g style="mix-blend-mode:lighten">
<path d="M86.3637 35.8069C86.0367 35.3201 85.6624 34.8801 85.2432 34.4814C84.8477 34.1074 84.5709 33.6124 84.4655 33.0679C84.1491 31.4096 83.4742 29.9961 82.4091 28.9154C82.3696 28.8741 82.3274 28.8356 82.2852 28.7944C81.9319 28.4589 81.6894 28.0216 81.5523 27.5459C81.1858 26.2671 80.5768 25.1616 79.7068 24.2816C79.4564 24.0286 79.1901 23.8004 78.9054 23.5969C78.5363 23.3301 78.2384 22.9726 78.0433 22.5491C77.5002 21.3639 76.7488 20.3849 75.776 19.6561C75.1881 19.2161 74.5422 18.8861 73.8462 18.6579C73.2056 18.4489 72.6651 18.0061 72.3197 17.4094C71.6422 16.2351 70.7617 15.3056 69.6755 14.6731C69.0164 14.2881 68.2387 14.0269 67.453 13.8811C66.8915 13.7794 66.3695 13.5016 65.9819 13.0644C65.1067 12.0826 64.1417 11.3071 62.9527 10.7709C61.8455 10.2704 60.6723 10.0091 59.4622 9.96513C59.0852 9.95138 58.7161 9.84963 58.3813 9.66813C57.303 9.08513 56.1588 8.71388 54.9593 8.58188C53.8046 8.45538 52.6551 8.55713 51.5294 8.86238C50.9836 9.01088 50.4089 8.97788 49.8843 8.75788C48.458 8.16663 46.979 7.90813 45.4816 8.02913C44.7856 8.08413 44.1054 8.22163 43.4463 8.43338C42.9744 8.58463 42.4787 8.60388 41.9989 8.48288C40.512 8.10063 39.0172 8.05663 37.5487 8.38938C36.1066 8.71663 34.7858 9.39038 33.6021 10.3529C33.0036 10.8396 32.218 11.0046 31.4746 10.8341C30.2776 10.5564 29.1387 10.6059 28.0921 11.0184C26.8899 11.4914 25.8986 12.4099 25.1236 13.6941C24.7993 14.2304 24.3036 14.6209 23.7289 14.8271C23.2992 14.9839 22.8853 15.1819 22.4925 15.4266C21.459 16.0701 20.6259 16.9859 19.9853 18.1271C19.6188 18.7789 19.023 19.2711 18.3138 19.4279C17.7918 19.5434 17.3173 19.7551 16.8981 20.0604C16.2891 20.5059 15.8277 21.1356 15.5035 21.9221C15.1792 22.7086 14.6124 23.2449 13.8742 23.5061C13.0411 23.8004 12.3056 24.2459 11.6886 24.8509C10.4258 26.0884 9.77465 27.8759 9.67183 30.0401C9.62174 31.0961 8.96792 31.9926 8.03465 32.4024C7.53638 32.6224 7.10138 32.9221 6.73756 33.3126C5.73574 34.3879 5.39037 36.0214 5.6171 38.0426C5.72519 39.0106 5.29283 39.9374 4.54937 40.5259C4.35165 40.6826 4.16974 40.8586 4.00628 41.0539C0.41292 45.3576 6.7481 57.2486 18.153 67.6079C19.6505 68.9691 21.1611 70.2341 22.6638 71.3974C23.1357 71.7631 23.4811 72.2774 23.6366 72.8686L25.5876 80.2386C25.9725 81.6879 27.4093 82.5404 28.7986 82.1389L35.4845 80.2139C36.2121 80.0049 36.9977 80.1286 37.6226 80.5714C39.8476 82.1389 42.2942 83.0464 44.8831 83.1481C47.3244 83.2416 49.6918 82.6091 51.9064 81.3716C52.4521 81.0664 53.0822 80.9619 53.6886 81.0911L62.6337 83.0189C64.0468 83.3241 65.4283 82.3754 65.7183 80.9041L68.0515 69.1231L67.8617 69.0819C68.1543 68.8756 68.4469 68.6666 68.7369 68.4549C83.3846 57.7574 91.2699 43.1411 86.3505 35.8096L86.3637 35.8069Z" fill="#DDC09E"/>
<path d="M86.3637 35.8069C86.0367 35.3201 85.6624 34.8801 85.2432 34.4814C84.8477 34.1074 84.5709 33.6124 84.4655 33.0679C84.1491 31.4096 83.4742 29.9961 82.4091 28.9154C82.3696 28.8741 82.3274 28.8356 82.2852 28.7944C81.9319 28.4589 81.6894 28.0216 81.5523 27.5459C81.1858 26.2671 80.5768 25.1616 79.7068 24.2816C79.4564 24.0286 79.1901 23.8004 78.9054 23.5969C78.5363 23.3301 78.2384 22.9726 78.0433 22.5491C77.5002 21.3639 76.7488 20.3849 75.776 19.6561C75.1881 19.2161 74.5422 18.8861 73.8462 18.6579C73.2056 18.4489 72.6651 18.0061 72.3197 17.4094C71.6422 16.2351 70.7617 15.3056 69.6755 14.6731C69.0164 14.2881 68.2387 14.0269 67.453 13.8811C66.8915 13.7794 66.3695 13.5016 65.9819 13.0644C65.1067 12.0826 64.1417 11.3071 62.9527 10.7709C61.8455 10.2704 60.6723 10.0091 59.4622 9.96513C59.0852 9.95138 58.7161 9.84963 58.3813 9.66813C57.303 9.08513 56.1588 8.71388 54.9593 8.58188C53.8046 8.45538 52.6551 8.55713 51.5294 8.86238C50.9836 9.01088 50.4089 8.97788 49.8843 8.75788C48.458 8.16663 46.979 7.90813 45.4816 8.02913C44.7856 8.08413 44.1054 8.22163 43.4463 8.43338C42.9744 8.58463 42.4787 8.60388 41.9989 8.48288C40.512 8.10063 39.0172 8.05663 37.5487 8.38938C36.1066 8.71663 34.7858 9.39038 33.6021 10.3529C33.0036 10.8396 32.218 11.0046 31.4746 10.8341C30.2776 10.5564 29.1387 10.6059 28.0921 11.0184C26.8899 11.4914 25.8986 12.4099 25.1236 13.6941C24.7993 14.2304 24.3036 14.6209 23.7289 14.8271C23.2992 14.9839 22.8853 15.1819 22.4925 15.4266C21.459 16.0701 20.6259 16.9859 19.9853 18.1271C19.6188 18.7789 19.023 19.2711 18.3138 19.4279C17.7918 19.5434 17.3173 19.7551 16.8981 20.0604C16.2891 20.5059 15.8277 21.1356 15.5035 21.9221C15.1792 22.7086 14.6124 23.2449 13.8742 23.5061C13.0411 23.8004 12.3056 24.2459 11.6886 24.8509C10.4258 26.0884 9.77465 27.8759 9.67183 30.0401C9.62174 31.0961 8.96792 31.9926 8.03465 32.4024C7.53638 32.6224 7.10138 32.9221 6.73756 33.3126C5.73574 34.3879 5.39037 36.0214 5.6171 38.0426C5.72519 39.0106 5.29283 39.9374 4.54937 40.5259C4.35165 40.6826 4.16974 40.8586 4.00628 41.0539C0.41292 45.3576 6.7481 57.2486 18.153 67.6079C19.6505 68.9691 21.1611 70.2341 22.6638 71.3974C23.1357 71.7631 23.4811 72.2774 23.6366 72.8686L25.5876 80.2386C25.9725 81.6879 27.4093 82.5404 28.7986 82.1389L35.4845 80.2139C36.2121 80.0049 36.9977 80.1286 37.6226 80.5714C39.8476 82.1389 42.2942 83.0464 44.8831 83.1481C47.3244 83.2416 49.6918 82.6091 51.9064 81.3716C52.4521 81.0664 53.0822 80.9619 53.6886 81.0911L62.6337 83.0189C64.0468 83.3241 65.4283 82.3754 65.7183 80.9041L68.0515 69.1231L67.8617 69.0819C68.1543 68.8756 68.4469 68.6666 68.7369 68.4549C83.3846 57.7574 91.2699 43.1411 86.3505 35.8096L86.3637 35.8069Z" stroke="white" stroke-miterlimit="10"/>
</g>
<g style="mix-blend-mode:lighten">
<path d="M42.7686 8.63428L44.8776 83.1345" stroke="white" stroke-miterlimit="10"/>
</g>
<g style="mix-blend-mode:lighten">
<path d="M50.6859 9.06299L47.7754 82.8152" stroke="white" stroke-miterlimit="10"/>
</g>
<g style="mix-blend-mode:lighten">
<path d="M58.8744 10.0366L50.4038 82.2241" stroke="white" stroke-miterlimit="10"/>
</g>
<g style="mix-blend-mode:lighten">
<path d="M66.5726 13.7686L52.7554 80.8135" stroke="white" stroke-miterlimit="10"/>
</g>
<g style="mix-blend-mode:lighten">
<path d="M72.702 18.3501L55.3652 78.8474" stroke="white" stroke-miterlimit="10"/>
</g>
<g style="mix-blend-mode:lighten">
<path d="M78.3071 23.2148L58.4922 76.3256" stroke="white" stroke-miterlimit="10"/>
</g>
<g style="mix-blend-mode:lighten">
<path d="M82.3434 28.9263L62.1436 73.5175" stroke="white" stroke-miterlimit="10"/>
</g>
<g style="mix-blend-mode:lighten">
<path d="M84.5206 33.8433L67.8799 69.0295" stroke="white" stroke-miterlimit="10"/>
</g>
<g style="mix-blend-mode:lighten">
<path d="M32.7876 11.2632L41.7064 82.6339" stroke="white" stroke-miterlimit="10"/>
</g>
<g style="mix-blend-mode:lighten">
<path d="M24.6621 14.6895L39.3203 81.5695" stroke="white" stroke-miterlimit="10"/>
</g>
<g style="mix-blend-mode:lighten">
<path d="M19.4556 19.4443L36.6605 79.9608" stroke="white" stroke-miterlimit="10"/>
</g>
<g style="mix-blend-mode:lighten">
<path d="M15.0264 23.0879L32.139 77.2794" stroke="white" stroke-miterlimit="10"/>
</g>
<g style="mix-blend-mode:lighten">
<path d="M9.5874 30.0483L28.4137 74.8623" stroke="white" stroke-miterlimit="10"/>
</g>
<g style="mix-blend-mode:lighten">
<path d="M5.74609 38.0811L23.3623 71.9143" stroke="white" stroke-miterlimit="10"/>
</g>
<g style="mix-blend-mode:lighten">
<path d="M23.2651 71.8564L36.5419 79.8892" stroke="white" stroke-miterlimit="10"/>
</g>
<g style="mix-blend-mode:lighten">
<path d="M68.1438 69.0239L52.7554 80.8132" stroke="white" stroke-miterlimit="10"/>
</g>
</g>
<defs>
<clipPath id="clip0_67_2998">
<rect width="87" height="77" fill="white" transform="translate(1 8)"/>
</clipPath>
</defs>
</svg>
